<svg xmlns="http://www.w3.org/2000/svg" viewBox="0 0 512 512">
<defs
><style>.lettre{fill:#fffc00;} .contour{fill:#02735e;}</style>
</defs
><g id="Calque_2" data-name="Calque 2"><g id="Calque_1-2" data-name="Calque 1">
<path class="contour" d="M512,512H0V0H512ZM128.68,347.4c-2,5.05-4.06,10.59-6.4,16-1,2.3-.61,3.36,1.6,4.59,16.86,9.37,34.91,12.36,53.86,10,11.07-1.37,20.87-5.68,28.32-14.36s10.25-19.32,10.28-30.59c.08-43.9,0-87.79.07-131.68,0-1.91-.46-2.6-2.49-2.6q-34.28.11-68.56,0c-1.87,0-2.49.59-2.46,2.45.09,5.3.14,10.6,0,15.89-.07,2.34.75,2.93,3,2.92,14.63-.09,29.26-.05,43.89-.05,3.26,0,3.27,0,3.27,3.22q0,51.72,0,103.44a72.07,72.07,0,0,1-.42,7.34c-1.18,11.47-8.23,19.47-19.48,21.94a48,48,0,0,1-24.18-1C142.17,353,135.67,350.06,128.68,347.4Zm161.8-26.35H314v-3.49q0-36.06,0-72.12a6.27,6.27,0,0,1,.85-3.55c6.42-8.4,14-15.56,23.83-19.78,14.38-6.19,28.66-6.6,42.49,1.79a8.31,8.31,0,0,0,1.22.5c2.79-6.51,5.56-12.87,8.2-19.29a2.27,2.27,0,0,0-1-2c-3.45-1.73-6.83-3.87-10.51-4.82-24.62-6.31-46.29-.93-64.55,17-.82.81-1.51,1.76-2.7,3.15-.94-6.4-1.8-11.93-2.53-17.47-.22-1.65-.85-2.3-2.57-2.26-4.34.1-8.7,0-13,0-3.29,0-3.3,0-3.3,3.19v119Zm-69.3-167.86c0-10.81-8-19-18.77-19a19,19,0,0,0-.26,38.07C213,172.25,221.15,164.12,221.18,153.19Z"/>
<path class="lettre" d="M128.68,347.4c7,2.66,13.49,5.58,20.25,7.59a48,48,0,0,0,24.18,1c11.25-2.47,18.3-10.47,19.48-21.94a72.07,72.07,0,0,0,.42-7.34q0-51.72,0-103.44c0-3.21,0-3.22-3.27-3.22-14.63,0-29.26,0-43.89.05-2.24,0-3.06-.58-3-2.92.16-5.29.11-10.59,0-15.89,0-1.86.59-2.46,2.46-2.45q34.27.07,68.56,0c2,0,2.5.69,2.49,2.6,0,43.89,0,87.78-.07,131.68,0,11.27-2.73,21.79-10.28,30.59s-17.25,13-28.32,14.36c-19,2.34-37-.65-53.86-10-2.21-1.23-2.6-2.29-1.6-4.59C124.62,358,126.68,352.45,128.68,347.4Z"/>
<path class="lettre" d="M290.48,321.05V202c0-3.18,0-3.19,3.3-3.19,4.34,0,8.7.07,13,0,1.72,0,2.35.61,2.57,2.26.73,5.54,1.59,11.07,2.53,17.47,1.19-1.39,1.88-2.34,2.7-3.15,18.26-18,39.93-23.36,64.55-17,3.68.95,7.06,3.09,10.51,4.82a2.27,2.27,0,0,1,1,2c-2.64,6.42-5.41,12.78-8.2,19.29a8.31,8.31,0,0,1-1.22-.5c-13.83-8.39-28.11-8-42.49-1.79-9.83,4.22-17.41,11.38-23.83,19.78a6.27,6.27,0,0,0-.85,3.55q-.06,36.06,0,72.12v3.49Z"/>
<path class="lettre" d="M221.18,153.19c0,10.93-8.15,19.06-19,19a19,19,0,0,1,.26-38.07C213.15,134.22,221.2,142.38,221.18,153.19Z"/></g></g>
</svg>